<svg aria-hidden="true" style="position:absolute;width:0;height:0;overflow:hidden" xmlns="http://www.w3.org/2000/svg">
  <defs>
    <symbol id="icon-user" viewBox="0 0 32 32">
      <path d="M16 16.041C7.567 16.041.706 22.902.706 31.335a.665.665 0 0 0 1.33 0c0-7.7 6.264-13.964 13.964-13.964s13.964 6.264 13.964 13.964a.665.665 0 0 0 1.33 0c0-8.434-6.861-15.294-15.294-15.294zM16 0c-4.032 0-7.314 3.281-7.314 7.314s3.282 7.314 7.314 7.314 7.314-3.281 7.314-7.314S20.032 0 16 0zm0 13.299c-3.299 0-5.985-2.685-5.985-5.985S12.7 1.329 16 1.329c3.299 0 5.984 2.685 5.984 5.985S19.299 13.299 16 13.299z"/>
    </symbol>
    <symbol id="icon-technical-support" viewBox="0 0 32 32">
      <path d="M5.628 24.747a2.61 2.61 0 0 0-1.261.322A14.774 14.774 0 0 1 1.25 16C1.25 7.867 7.867 1.25 16 1.25c.989 0 1.977.098 2.938.292a.624.624 0 1 0 .247-1.226A16.152 16.152 0 0 0 16-.001c-4.274 0-8.292 1.664-11.314 4.686S0 11.725 0 15.999c0 3.595 1.221 7.103 3.443 9.916-.286.427-.44.93-.44 1.456 0 .701.273 1.36.769 1.856s1.155.769 1.856.769 1.36-.273 1.856-.769.769-1.155.769-1.856-.273-1.36-.769-1.856a2.607 2.607 0 0 0-1.856-.769zm.972 3.597c-.26.26-.605.403-.972.403s-.712-.143-.972-.403-.403-.605-.403-.972.143-.713.403-.972c.26-.26.605-.403.972-.403s.712.143.972.403.403.605.403.972-.143.712-.403.972zM28.556 6.084a2.632 2.632 0 0 0-.328-3.312c-.496-.496-1.155-.769-1.856-.769s-1.36.273-1.856.769-.769 1.155-.769 1.856.273 1.36.769 1.856a2.607 2.607 0 0 0 1.856.769 2.61 2.61 0 0 0 1.261-.322A14.774 14.774 0 0 1 30.75 16c0 8.133-6.617 14.75-14.75 14.75-.979 0-1.958-.096-2.909-.287a.626.626 0 0 0-.246 1.226c1.032.206 2.094.311 3.155.311 4.274 0 8.292-1.664 11.314-4.686S32 20.274 32 16c0-3.595-1.221-7.104-3.444-9.916zM25.4 5.601c-.26-.26-.403-.605-.403-.972s.143-.712.403-.972.605-.403.972-.403.713.143.972.403a1.377 1.377 0 0 1-.972 2.348c-.367 0-.713-.143-.972-.403z"/>
      <path d="M13.421 26.75c0 .345.28.625.625.625h3.908c.345 0 .625-.28.625-.625v-1.212a9.801 9.801 0 0 0 2.346-.972l.855.855a.625.625 0 0 0 .884 0l2.762-2.764a.625.625 0 0 0 0-.884l-.855-.855a9.785 9.785 0 0 0 .972-2.346h1.207c.345 0 .625-.28.625-.625v-3.908a.625.625 0 0 0-.625-.625h-1.207a9.777 9.777 0 0 0-.972-2.345l.85-.85a.625.625 0 0 0 0-.884l-2.764-2.762a.625.625 0 0 0-.884 0l-.849.849a9.785 9.785 0 0 0-2.346-.972v-1.2a.625.625 0 0 0-.625-.625h-3.908a.625.625 0 0 0-.625.625v1.201a9.777 9.777 0 0 0-2.345.972l-.849-.849a.625.625 0 0 0-.884 0L6.578 9.336a.625.625 0 0 0 0 .884l.85.85a9.794 9.794 0 0 0-.972 2.345H5.251a.625.625 0 0 0-.625.625l-.002 3.908a.625.625 0 0 0 .625.625h1.207c.221.822.547 1.607.972 2.346l-.854.855a.625.625 0 0 0 0 .884l2.762 2.764a.625.625 0 0 0 .884 0l.855-.855a9.801 9.801 0 0 0 2.346.972v1.212zm-2.101-3.498a.625.625 0 0 0-.781.083l-.761.761-1.879-1.88.76-.76a.625.625 0 0 0 .083-.781 8.553 8.553 0 0 1-1.184-2.857.625.625 0 0 0-.611-.494H5.874l.001-2.658h1.072a.625.625 0 0 0 .611-.494 8.553 8.553 0 0 1 1.184-2.857.625.625 0 0 0-.083-.781l-.755-.756 1.88-1.879.755.755a.625.625 0 0 0 .781.083 8.553 8.553 0 0 1 2.857-1.184.626.626 0 0 0 .494-.611V5.875h2.658v1.067c0 .295.206.549.494.611a8.553 8.553 0 0 1 2.857 1.184c.247.16.573.126.781-.083l.755-.755 1.88 1.879-.755.755a.624.624 0 0 0-.083.781 8.553 8.553 0 0 1 1.184 2.857.625.625 0 0 0 .611.494h1.074v2.658h-1.074a.625.625 0 0 0-.611.494 8.553 8.553 0 0 1-1.184 2.857.625.625 0 0 0 .083.781l.76.76-1.879 1.88-.761-.761a.625.625 0 0 0-.781-.083 8.553 8.553 0 0 1-2.857 1.184.625.625 0 0 0-.494.611v1.078h-2.658v-1.078a.626.626 0 0 0-.494-.611 8.553 8.553 0 0 1-2.857-1.184z"/>
      <path d="M21.164 16c0-2.848-2.317-5.164-5.164-5.164S10.836 13.153 10.836 16c0 2.848 2.317 5.164 5.164 5.164s5.164-2.317 5.164-5.164zm-9.078 0c0-2.158 1.756-3.914 3.914-3.914s3.914 1.756 3.914 3.914c0 2.158-1.756 3.914-3.914 3.914S12.086 18.158 12.086 16zM21.755 2.364c.165 0 .326-.067.442-.183s.183-.278.183-.443a.625.625 0 1 0-.625.626zM10.272 29.647c-.164 0-.326.067-.442.183s-.183.278-.183.442c0 .165.067.326.183.442s.278.183.442.183c.164 0 .326-.067.442-.183s.183-.278.183-.442c0-.164-.067-.326-.183-.442s-.278-.183-.442-.183z"/>
    </symbol>
    <symbol id="icon-partner" viewBox="0 0 32 32">
      <path  d="M25.524 8.058a.625.625 0 1 0-.885-.884.625.625 0 0 0 .885.884zM8.156 9.352a.625.625 0 1 0-.885-.884.625.625 0 0 0 .885.884zM4.478 12.951l1.871-1.871a.625.625 0 0 0-.884-.884l-1.871 1.871a.625.625 0 0 0 .884.884zM27.585 11.138a.625.625 0 0 0 .884-.884l-1.247-1.247a.625.625 0 0 0-.884.884l1.247 1.247z"/>
      <path  d="m31.817 10.442-7.07-7.071a.624.624 0 0 0-.87-.013L20.71 6.342l-.007.006c-.611.611-1.213.884-1.951.884-1.509 0-2.666.426-3.626 1.336-.787-.746-1.68-1.131-2.925-1.26L9.076 4.183a.625.625 0 0 0-.884 0L.183 12.192a.624.624 0 0 0-.014.869l.014.015 5.219 5.21-.221.221a2.186 2.186 0 0 0 1.569 3.731c-.007.6.225 1.156.64 1.571.422.422.985.645 1.569.639-.006.6.225 1.156.64 1.571.405.404.961.645 1.569.638a2.19 2.19 0 0 0 3.733 1.571l.221-.221.221.221a2.19 2.19 0 0 0 3.734-1.57 2.18 2.18 0 0 0 2.208-2.209 2.168 2.168 0 0 0 1.57-.64c.416-.416.647-.972.64-1.571a2.185 2.185 0 0 0 1.57-3.732l-.22-.22c4.358-4.353-1.155 1.164 6.969-6.961a.625.625 0 0 0 0-.884zM1.509 12.633l7.125-7.124 2.401 2.401-7.123 7.124-2.403-2.401zm4.556 8.083a.938.938 0 0 1 0-1.326l2.21-2.21a.939.939 0 0 1 1.326 1.326l-2.209 2.209a.94.94 0 0 1-1.326 0zm2.21 2.21a.937.937 0 0 1 0-1.326l2.209-2.209a.936.936 0 0 1 1.326 0 .936.936 0 0 1 0 1.325l-2.21 2.21a.938.938 0 0 1-1.326 0zm2.209 2.209a.937.937 0 0 1 0-1.325l2.21-2.21a.938.938 0 0 1 1.326 1.325l-2.209 2.209a.938.938 0 0 1-1.326 0zm2.21 2.211a.937.937 0 0 1 0-1.326l2.209-2.209a.937.937 0 1 1 1.326 1.326l-2.21 2.21a.94.94 0 0 1-1.326 0zm4.861 0a.937.937 0 0 1-1.325 0l-.221-.221 1.105-1.105a2.4 2.4 0 0 0 .205-.237l.237.237a.938.938 0 0 1 0 1.326zm6.63-6.63a.94.94 0 0 1-1.326 0l-2.873-2.872a.625.625 0 0 0-.884.884l2.873 2.873a.937.937 0 1 1-1.325 1.326l-2.873-2.873a.625.625 0 0 0-.884.884l2.873 2.873a.937.937 0 0 1-.663 1.6c-.594 0-.785-.468-1.349-.96a2.168 2.168 0 0 0-.64-1.523 2.171 2.171 0 0 0-1.57-.641 2.172 2.172 0 0 0-.641-1.57 2.18 2.18 0 0 0-1.569-.639 2.186 2.186 0 0 0-2.209-2.211 2.19 2.19 0 0 0-3.734-1.57l-1.105 1.105-1.489-1.485 7.356-7.357c.911.104 1.524.366 2.086.889l-1.766 1.766c-.974.975-.974 2.561 0 3.536s2.561.974 3.536 0l1.768-1.768 6.408 6.409a.937.937 0 0 1 0 1.325zm-.221-3.314-5.304-5.304.442-.442a.625.625 0 0 0-.884-.884l-3.094 3.094c-.487.487-1.281.487-1.768 0s-.487-1.281 0-1.768l2.545-2.544c.741-.741 1.62-1.072 2.849-1.072.884 0 1.647-.266 2.362-.828l6.223 6.385-3.372 3.364zm4.257-4.247-6.185-6.346 2.256-2.126 6.199 6.2-2.271 2.271z"/>
    </symbol>
    <symbol id="icon-leader" viewBox="0 0 32 32">
      <path d="M16.625 13.125a.625.625 0 1 1-1.25 0 .625.625 0 0 1 1.25 0zM0 29.75v1.625c0 .345.28.625.625.625h10c.345 0 .625-.28.625-.625V29.75a5.623 5.623 0 0 0-5.625-5.625A5.63 5.63 0 0 0 0 29.75zm5.625-4.375A4.373 4.373 0 0 1 10 29.75v1H1.25v-1a4.38 4.38 0 0 1 4.375-4.375zM26.375 24.125a5.63 5.63 0 0 0-5.625 5.625v1.625c0 .345.28.625.625.625h10c.345 0 .625-.28.625-.625V29.75a5.623 5.623 0 0 0-5.625-5.625zm4.375 6.625H22v-1a4.38 4.38 0 0 1 4.375-4.375 4.373 4.373 0 0 1 4.375 4.375v1z"/>
      <path d="M30.125 20.375A3.756 3.756 0 0 0 27 16.678v-3.553a1.877 1.877 0 0 0-1.875-1.875h-3.821A5.62 5.62 0 0 0 16 7.5a5.623 5.623 0 0 0-5.305 3.75h-3.82A1.877 1.877 0 0 0 5 13.125v3.553a3.756 3.756 0 0 0-3.125 3.697c0 2.068 1.682 3.75 3.75 3.75s3.75-1.682 3.75-3.75a3.756 3.756 0 0 0-3.125-3.697v-3.553c0-.345.28-.626.625-.626h3.535a5.683 5.683 0 0 0-.035.626V16c0 .345.28.625.625.625h10c.345 0 .625-.28.625-.625v-2.875c0-.209-.012-.418-.035-.625h3.535c.345 0 .625.28.625.625v3.553a3.756 3.756 0 0 0-3.125 3.697c0 2.068 1.682 3.75 3.75 3.75s3.75-1.682 3.75-3.75zm-22 0c0 1.378-1.122 2.5-2.5 2.5s-2.5-1.122-2.5-2.5 1.122-2.5 2.5-2.5 2.5 1.122 2.5 2.5zm12.25-5h-8.75v-2.25a4.372 4.372 0 0 1 3.75-4.329v1.83a.625.625 0 0 0 1.25 0v-1.83a4.377 4.377 0 0 1 3.75 4.33v2.25zm6 7.5c-1.378 0-2.5-1.122-2.5-2.5s1.122-2.5 2.5-2.5 2.5 1.122 2.5 2.5-1.122 2.5-2.5 2.5z"/>
      <path d="M19.75 3.75C19.75 1.682 18.068 0 16 0s-3.75 1.682-3.75 3.75S13.932 7.5 16 7.5s3.75-1.682 3.75-3.75zM16 6.25c-1.378 0-2.5-1.122-2.5-2.5s1.122-2.5 2.5-2.5 2.5 1.122 2.5 2.5-1.122 2.5-2.5 2.5z"/>
    </symbol>
    <symbol id="icon-logo-bg" viewBox="0 0 32 32">
      <path d="M0 14.729c.197-4.706 2.727-9.294 7.721-12.413C11.05.245 14.747-.411 18.601.245c6.187 1.049 11.194 5.519 12.833 11.706.236.865-.013 1.416-.668 1.586-.603.157-1.062-.118-1.258-.8-.472-1.691-1.114-3.303-2.176-4.719-3.303-4.391-7.694-6.449-13.148-5.741-5.545.708-9.464 3.841-11.286 9.084-1.756 5.034-.826 9.766 2.779 13.842 2.176 2.451 4.942 3.88 8.18 4.391.786.131 1.206.629 1.088 1.271-.105.577-.708.904-1.442.786-4.444-.721-7.996-2.923-10.604-6.554C1.064 22.528-.024 19.513.002 14.728z"/>
      <path d="M6.738 22.882c-.039-1.088.564-1.809 1.416-2.333 1.743-1.075 3.5-2.11 5.256-3.159.406-.236.8-.354 1.219-.052.38.275.354.682.275 1.075-.38 2.124-.747 4.247-1.154 6.371-.249 1.311-1.73 2.333-3.002 1.927-1.403-.446-2.569-1.324-3.579-2.399-.367-.419-.406-.931-.433-1.429zM9.832 5.802c1.258 0 2.228.682 2.622 1.691a719.922 719.922 0 0 0 2.268 5.768c.17.433.275.813-.118 1.193-.367.367-.747.236-1.14.105-1.874-.655-3.736-1.311-5.623-1.953-2.189-.734-2.74-2.923-1.154-4.575.511-.537 1.036-1.049 1.56-1.573.485-.472 1.075-.629 1.586-.655zM3.54 16.013c-.17-1.049.079-2.15 1.245-2.844.642-.393 1.337-.511 2.071-.236 2.045.76 4.077 1.521 6.122 2.294.393.144.747.38.773.865.039.485-.301.668-.655.865-1.914 1.022-3.801 2.097-5.755 3.067-1.56.773-3.382-.249-3.67-1.966-.092-.616-.092-1.219-.131-2.045zM16.006 3.705c.655.079 1.507.131 2.346.262 1.822.301 2.727 2.242 1.796 3.841-1.062 1.822-2.15 3.618-3.225 5.427-.223.367-.459.708-.957.655-.485-.052-.669-.42-.8-.839-.682-2.045-1.403-4.064-2.045-6.122-.537-1.691.826-3.29 2.884-3.225zM27.161 11.163a2.655 2.655 0 0 1-2.137 2.53c-2.137.406-4.286.786-6.423 1.193-.393.079-.682-.066-.904-.367-.223-.288-.21-.59-.013-.918A498.245 498.245 0 0 0 21 7.912c.852-1.494 3.212-1.691 4.273-.262a37.394 37.394 0 0 1 1.468 2.071c.275.446.433.931.419 1.442zM16.687 27.666c.459.76.983 1.363 1.271 2.084.315.787.066 1.678-.55 2.019-.918.524-1.914-.026-1.966-1.088-.026-1.127.629-1.992 1.245-3.015z"/>
    </symbol>
    <symbol id="icon-facebook" viewBox="0 0 32 32">
      <path d="M21.329 5.313h2.921V.225C23.746.156 22.013 0 19.994 0c-4.212 0-7.097 2.649-7.097 7.519V12H8.249v5.688h4.648V32h5.699V17.689h4.46l.708-5.688h-5.169V8.082c.001-1.644.444-2.769 2.735-2.769z"/>
    </symbol>
    <symbol id="icon-instagram-1" viewBox="0 0 32 32">
      <path d="M16.005 7.784a8.21 8.21 0 0 0-8.211 8.211 8.21 8.21 0 0 0 8.211 8.211 8.21 8.21 0 0 0 8.211-8.211 8.21 8.21 0 0 0-8.211-8.211zm0 13.54c-2.945 0-5.329-2.385-5.329-5.329s2.385-5.329 5.329-5.329a5.328 5.328 0 0 1 5.329 5.329 5.326 5.326 0 0 1-5.329 5.329z"/>
      <path d="M22.597.102c-2.944-.137-10.236-.131-13.183 0C6.825.223 4.541.849 2.699 2.69-.378 5.767.015 9.914.015 15.995c0 6.224-.347 10.275 2.684 13.305 3.089 3.088 7.296 2.684 13.305 2.684 6.165 0 8.293.004 10.473-.84 2.964-1.151 5.201-3.8 5.42-8.559.139-2.945.131-10.236 0-13.183-.264-5.617-3.279-9.024-9.301-9.301zm4.66 27.162c-2.018 2.017-4.816 1.837-11.291 1.837-6.667 0-9.34.099-11.291-1.857-2.247-2.236-1.84-5.827-1.84-11.271 0-7.367-.756-12.672 6.637-13.051 1.699-.06 2.199-.08 6.475-.08l.06.04c7.105 0 12.68-.744 13.015 6.648.076 1.687.093 2.193.093 6.463-.001 6.589.124 9.279-1.859 11.271z"/>
      <path d="M24.541 9.379a1.919 1.919 0 1 0 0-3.838 1.919 1.919 0 0 0 0 3.838z"/>
    </symbol>
    <symbol id="icon-location" viewBox="0 0 32 32">
      <path d="M16 0C9.751 0 4.667 5.084 4.667 11.333c0 6.044 10.361 19.819 10.801 20.403a.667.667 0 0 0 1.064 0c.44-.584 10.801-14.359 10.801-20.403C27.333 5.084 22.249 0 16 0zm0 30.212C13.86 27.284 6 16.197 6 11.333c0-5.515 4.485-10 10-10s10 4.485 10 10c0 4.861-7.86 15.949-10 18.879z"/>
      <path d="M16 5.333c-3.308 0-6 2.692-6 6s2.692 6 6 6 6-2.692 6-6-2.692-6-6-6zM16 16c-2.573 0-4.667-2.093-4.667-4.667S13.426 6.666 16 6.666s4.667 2.093 4.667 4.667A4.672 4.672 0 0 1 16 16z"/>
    </symbol>
    <symbol id="icon-logo-yellow-bg" viewBox="0 0 32 32">
      <path opacity=".1" d="M.052 14.735C.249 10.027 2.78 5.438 7.776 2.317 11.107.245 14.805-.411 18.66.245c6.189 1.049 11.199 5.521 12.838 11.71.236.865-.013 1.416-.669 1.587-.603.157-1.062-.118-1.259-.8-.472-1.692-1.115-3.305-2.177-4.721-3.305-4.393-7.698-6.452-13.153-5.744-5.547.708-9.468 3.842-11.291 9.088-1.757 5.036-.826 9.769 2.78 13.848 2.177 2.452 4.944 3.882 8.183 4.393.787.131 1.206.629 1.088 1.272-.105.577-.708.905-1.442.787-4.445-.721-7.999-2.924-10.609-6.557C1.113 22.538.025 19.522.051 14.735z"/>
      <path opacity=".1" d="M6.792 22.891c-.039-1.088.564-1.81 1.416-2.334 1.744-1.075 3.501-2.111 5.258-3.16.406-.236.8-.354 1.22-.052.38.275.354.682.275 1.075-.38 2.124-.747 4.249-1.154 6.373-.249 1.311-1.731 2.334-3.003 1.928-1.403-.446-2.57-1.324-3.58-2.4-.367-.42-.407-.931-.433-1.429zM9.887 5.804c1.259 0 2.229.682 2.623 1.692a720.43 720.43 0 0 0 2.269 5.77c.17.433.275.813-.118 1.193-.367.367-.747.236-1.141.105-1.875-.656-3.737-1.311-5.626-1.954-2.19-.734-2.741-2.924-1.154-4.577.511-.538 1.036-1.049 1.56-1.574.485-.472 1.075-.629 1.587-.656zM3.592 16.02c-.17-1.049.079-2.151 1.246-2.846.643-.393 1.338-.511 2.072-.236 2.046.761 4.078 1.521 6.124 2.295.393.144.747.38.774.865.039.485-.302.669-.656.866-1.915 1.023-3.803 2.098-5.757 3.069-1.56.774-3.383-.249-3.672-1.967-.092-.616-.092-1.219-.131-2.046zM16.063 3.706c.656.079 1.508.131 2.347.262 1.823.302 2.728 2.242 1.796 3.842-1.062 1.823-2.151 3.619-3.226 5.429-.223.367-.459.708-.957.656-.485-.052-.669-.42-.8-.839-.682-2.046-1.403-4.065-2.046-6.124-.538-1.692.826-3.291 2.885-3.226zM27.222 11.168a2.655 2.655 0 0 1-2.137 2.531c-2.138.406-4.288.787-6.426 1.193-.393.079-.682-.066-.905-.367-.223-.288-.21-.59-.013-.918a498.662 498.662 0 0 0 3.318-5.691c.852-1.495 3.213-1.692 4.275-.262.511.682 1.01 1.364 1.469 2.072.275.446.433.931.42 1.442zM16.745 27.677c.459.761.983 1.364 1.272 2.085.315.787.066 1.678-.551 2.019-.918.524-1.915-.026-1.967-1.088-.026-1.128.629-1.993 1.246-3.016z"/>
    </symbol>
    <symbol id="icon-visibility" viewBox="0 0 32 32">
      <path d="M31.881 15.621c-.252-.367-6.308-8.955-15.882-8.955-8.215 0-15.535 8.539-15.843 8.903a.67.67 0 0 0 0 .861c.308.364 7.628 8.903 15.843 8.903s15.535-8.539 15.843-8.903a.667.667 0 0 0 .039-.809zM16 24c-6.585 0-12.847-6.28-14.438-8C3.15 14.279 9.405 8 16 8c7.705 0 13.144 6.271 14.472 7.964C28.939 17.629 22.641 24 16 24z"/>
      <path d="M16 10.667c-2.941 0-5.333 2.392-5.333 5.333s2.392 5.333 5.333 5.333c2.941 0 5.333-2.392 5.333-5.333S18.941 10.667 16 10.667zM16 20c-2.205 0-4-1.795-4-4s1.795-4 4-4 4 1.795 4 4-1.795 4-4 4z"/>
    </symbol>
    <symbol id="icon-phone-call" viewBox="0 0 32 32">
      <path d="M31.979 26.337a2.457 2.457 0 0 0-1.218-1.819l-7.894-4.545a2.476 2.476 0 0 0-2.983.395l-1.555 1.555a1.138 1.138 0 0 1-1.522.085c-1.226-.986-2.433-2.072-3.587-3.227s-2.24-2.361-3.227-3.587a1.14 1.14 0 0 1 .085-1.522l1.555-1.555a2.479 2.479 0 0 0 .395-2.983L7.483 1.239C7.096.567 6.433.123 5.664.021S4.139.176 3.591.724L1.248 3.067C-.387 4.702-.414 7.694 1.174 11.49c1.527 3.65 4.375 7.669 8.022 11.315s7.665 6.495 11.315 8.022c1.869.781 3.542 1.172 4.955 1.172 1.457 0 2.638-.416 3.468-1.246l2.343-2.343a2.455 2.455 0 0 0 .703-2.073zm-9.629-5.466 7.895 4.545c.39.225.648.61.707 1.056.05.375-.048.744-.268 1.041l-10.492-5.988.426-.426a1.44 1.44 0 0 1 1.732-.229zM5.527 1.049c.447.059.832.317 1.056.707l4.545 7.895a1.439 1.439 0 0 1-.229 1.732l-.391.391L4.487 1.317a1.419 1.419 0 0 1 1.039-.268zM28.2 30.02c-1.299 1.299-3.956 1.245-7.29-.149-3.529-1.476-7.429-4.245-10.982-7.798S3.605 14.62 2.13 11.091C.736 7.757.681 5.1 1.981 3.801L3.72 2.062l6.03 10.473-.404.404a2.174 2.174 0 0 0-.16 2.905c1.01 1.255 2.12 2.49 3.301 3.67s2.416 2.292 3.67 3.301a2.175 2.175 0 0 0 2.906-.16l.369-.369 10.506 5.996-1.737 1.738z"/>
    </symbol>
    <symbol id="icon-email" viewBox="0 0 32 32">
      <path d="M30 5.333H2c-1.103 0-2 .897-2 2v17.333c0 1.103.897 2 2 2h28c1.103 0 2-.897 2-2V7.333c0-1.103-.897-2-2-2zm.667 19.334a.667.667 0 0 1-.667.667H2a.667.667 0 0 1-.667-.667V7.334c0-.368.299-.667.667-.667h28c.368 0 .667.299.667.667v17.333z"/>
      <path d="M31.537 6.057a.666.666 0 0 0-.931-.149l-13.431 9.709a1.997 1.997 0 0 1-2.355-.001L1.395 5.908a.667.667 0 1 0-.782 1.081l13.424 9.707a3.325 3.325 0 0 0 3.92 0l13.429-9.708a.668.668 0 0 0 .149-.931z"/>
      <path d="M14.756 15.608a.668.668 0 0 0-.932-.148L.633 25.035a.669.669 0 0 0 .392 1.207.67.67 0 0 0 .392-.127l13.191-9.575a.669.669 0 0 0 .148-.932zM31.367 25.035 18.178 15.46c-.301-.217-.716-.151-.932.148s-.149.715.148.932l13.189 9.575a.666.666 0 0 0 .932-.148.669.669 0 0 0-.148-.932z"/>
    </symbol>
    <symbol id="icon-header-arrow" viewBox="0 0 32 32">
      <path d="M16.878 24.259l14.776-14.776c0.473-0.489 0.459-1.269-0.030-1.741-0.477-0.461-1.234-0.461-1.711 0l-13.906 13.906-13.906-13.906c-0.481-0.481-1.26-0.481-1.741 0s-0.481 1.26 0 1.741l14.776 14.776c0.481 0.481 1.26 0.481 1.741 0z"></path>
    </symbol>
        <symbol id="icon-menu_open" viewBox="0 0 32 32">
      <path d="M6.4 11.733v-2.133h19.2v2.133h-19.2zM6.4 17.067h19.2v-2.133h-19.2v2.133zM6.4 22.4h19.2v-2.133h-19.2v2.133z"></path>
    </symbol>
    <symbol id="icon-menu_close" viewBox="0 0 32 32">
      <path d="M23.733 10.304l-1.504-1.504-5.963 5.963-5.963-5.963-1.504 1.504 5.963 5.963-5.963 5.963 1.504 1.504 5.963-5.963 5.963 5.963 1.504-1.504-5.963-5.963 5.963-5.963z"></path>
    </symbol>
  </defs>
</svg>
